<svg width="49" height="47" viewBox="0 0 49 47" fill="none" xmlns="http://www.w3.org/2000/svg">
<rect x="0.5" y="0.5" width="48" height="46" stroke="#C4C4C4"/>
<path d="M22.8633 23.0703C22.8633 25.9297 22.0742 28.1328 20.4961 29.6797C18.9258 31.2266 16.7148 32 13.8633 32H8.32031V14.8672H14.25C17 14.8672 19.1211 15.5703 20.6133 16.9766C22.1133 18.3828 22.8633 20.4141 22.8633 23.0703ZM18.0586 23.2344C18.0586 21.6641 17.7461 20.5 17.1211 19.7422C16.5039 18.9844 15.5625 18.6055 14.2969 18.6055H12.9492V28.2031H13.9805C15.3867 28.2031 16.418 27.7969 17.0742 26.9844C17.7305 26.1641 18.0586 24.9141 18.0586 23.2344ZM36.457 32L35.6133 28.7891H30.0469L29.1797 32H24.0938L29.6836 14.7969H35.8594L41.5195 32H36.457ZM34.6523 24.9922L33.9141 22.1797C33.7422 21.5547 33.5312 20.7461 33.2812 19.7539C33.0391 18.7617 32.8789 18.0508 32.8008 17.6211C32.7305 18.0195 32.5898 18.6758 32.3789 19.5898C32.1758 20.5039 31.7188 22.3047 31.0078 24.9922H34.6523Z" fill="#C4C4C4"/>
</svg>
