<svg width="147" height="211" viewBox="0 0 147 211" fill="none" xmlns="http://www.w3.org/2000/svg">
<path fill-rule="evenodd" clip-rule="evenodd" d="M68.6802 144.127C69.4713 144.572 70.1796 144.784 70.8439 144.95C71.7631 145.18 72.5927 145.267 73.387 145.269C75.0968 145.274 76.6922 144.933 79.0359 143.595L135.332 113.053C139.551 110.645 141.391 108.126 141.391 103.308V41.1717C141.391 36.354 138.434 34.2003 134.192 31.7915L77.6266 1.14574C77.1079 0.854044 76.6991 0.629506 76.2769 0.479695C75.3347 0.145272 74.5589 0.017395 73.5767 0.017395C72.1536 0.017395 70.7465 0.0248582 68.1942 1.48201L12.9633 31.1185C8.74384 33.5273 4.59375 36.354 4.59375 41.1717L4.70717 103.578C4.70717 108.395 8.23397 111.527 12.4761 113.935L68.6802 144.127Z" fill="#32C3FF"/>
<path fill-rule="evenodd" clip-rule="evenodd" d="M77.3496 89.3751C77.3496 97.4064 79.1242 100.895 86.3538 100.895C88.1941 100.895 89.8372 100.698 91.2834 100.435L91.0863 98.9205C89.8372 99.118 88.5887 99.2494 87.3396 99.2494C80.2414 99.2494 79.3212 96.0236 79.3212 89.3751C79.3212 82.7261 80.11 79.5004 87.3396 79.5004C88.5887 79.5004 89.9029 79.6979 91.0863 79.8293L91.2834 78.2495C89.9029 77.9863 88.1941 77.7888 86.3538 77.7888C79.1242 77.8544 77.3496 81.3434 77.3496 89.3751ZM64.4669 79.171L56.2514 100.698H58.2231L60.7207 93.9831H70.9082L73.4059 100.698H75.4432L67.2934 79.171C66.9645 78.3152 66.5047 77.8545 65.8473 77.8545C65.2556 77.8545 64.8615 78.2495 64.4669 79.171ZM65.8473 80.4219L70.3166 92.4033H61.3123L65.8473 80.4219ZM107.912 78.1177L97.4615 88.585V78.1177H95.5555V100.698H97.4615V89.5722L108.109 100.698H110.607L99.3674 89.0457L110.278 78.1177H107.912ZM50.2047 78.1177V88.3218H37.5194V78.1177H35.6133V100.698H37.5194V89.9672H50.2704V100.698H52.1763V78.1177H50.2047Z" fill="white"/>
<path fill-rule="evenodd" clip-rule="evenodd" d="M91.1891 49.262V70.0992H95.6183V52.2195L103.336 67.1418C104.611 69.5618 105.752 70.3684 107.497 70.3684C109.376 70.3684 110.45 69.2255 110.45 66.6714V45.834H106.02V63.6464L98.3025 48.7916C97.0948 46.4391 95.8196 45.6324 94.1419 45.6324C92.3297 45.5652 91.1891 46.7079 91.1891 49.262ZM67.1633 58.0002C67.1633 66.806 69.3108 70.3684 76.8942 70.3684C84.411 70.3684 86.5581 66.7385 86.5581 58.0002C86.5581 49.1949 84.411 45.6324 76.8942 45.6324C69.3108 45.5652 67.1633 49.1949 67.1633 58.0002ZM72.1966 58.0002C72.1966 53.0261 72.3308 49.6653 76.8942 49.6653C81.4581 49.6653 81.5922 53.0261 81.5922 58.0002C81.5922 62.9743 81.4581 66.3351 76.8942 66.3351C72.2637 66.2681 72.1966 62.9073 72.1966 58.0002ZM45.621 46.2375V70.0992H50.5201V60.8235C51.3925 60.8906 52.466 60.9577 53.473 60.9577L58.4388 70.0992H64.0763L58.5063 60.3531C61.3917 59.479 63.1368 57.4628 63.1368 53.1607C63.1368 46.5733 58.7746 45.5652 53.4059 45.5652C50.5872 45.5652 47.7014 45.834 45.621 46.2375ZM50.5201 56.9248V49.5983C51.5266 49.4637 52.6677 49.3966 53.6071 49.3966C57.1641 49.3966 58.3718 50.472 58.3718 53.1607C58.3718 56.2528 56.56 57.0594 53.54 57.0594C52.6006 57.0594 51.6607 57.0594 50.6542 56.9248C50.6542 56.9248 50.6543 56.9248 50.5872 56.9248C50.5872 56.9248 50.5872 56.9248 50.5201 56.9248C50.5872 56.9248 50.5872 56.9248 50.5201 56.9248C50.5872 56.9248 50.5872 56.9248 50.5201 56.9248ZM35.4202 70.0992H40.3863V45.834H35.4202V70.0992ZM76.8942 70.3684C76.8942 70.3684 69.3108 70.3684 76.8942 70.3684V70.3684Z" fill="white"/>
<path d="M8.03906 178.055C8.03906 177.336 8.25 176.781 8.67188 176.391C9.10156 176 9.72266 175.805 10.5352 175.805C11.3086 175.805 11.9023 176 12.3164 176.391C12.7305 176.781 12.9375 177.336 12.9375 178.055C12.9375 178.758 12.7227 179.309 12.293 179.707C11.8711 180.098 11.2852 180.293 10.5352 180.293C9.76172 180.293 9.15234 180.098 8.70703 179.707C8.26172 179.316 8.03906 178.766 8.03906 178.055Z" fill="#30354C"/>
<path d="M23.6406 166.418C22.5391 166.418 21.6797 166.871 21.0625 167.777C20.4453 168.676 20.1367 169.918 20.1367 171.504C20.1367 174.801 21.3906 176.449 23.8984 176.449C24.6562 176.449 25.3906 176.344 26.1016 176.133C26.8125 175.922 27.5273 175.668 28.2461 175.371V179.285C26.8164 179.918 25.1992 180.234 23.3945 180.234C20.8086 180.234 18.8242 179.484 17.4414 177.984C16.0664 176.484 15.3789 174.316 15.3789 171.48C15.3789 169.707 15.7109 168.148 16.375 166.805C17.0469 165.461 18.0078 164.43 19.2578 163.711C20.5156 162.984 21.9922 162.621 23.6875 162.621C25.5391 162.621 27.3086 163.023 28.9961 163.828L27.5781 167.473C26.9453 167.176 26.3125 166.926 25.6797 166.723C25.0469 166.52 24.3672 166.418 23.6406 166.418ZM47.6289 171.41C47.6289 174.293 46.9219 176.484 45.5078 177.984C44.0938 179.484 42.0234 180.234 39.2969 180.234C36.6094 180.234 34.5469 179.48 33.1094 177.973C31.6797 176.465 30.9648 174.27 30.9648 171.387C30.9648 168.535 31.6758 166.359 33.0977 164.859C34.5273 163.352 36.6016 162.598 39.3203 162.598C42.0469 162.598 44.1133 163.344 45.5195 164.836C46.9258 166.328 47.6289 168.52 47.6289 171.41ZM35.8398 171.41C35.8398 174.723 36.9922 176.379 39.2969 176.379C40.4688 176.379 41.3359 175.977 41.8984 175.172C42.4688 174.367 42.7539 173.113 42.7539 171.41C42.7539 169.699 42.4648 168.438 41.8867 167.625C41.3164 166.805 40.4609 166.395 39.3203 166.395C37 166.395 35.8398 168.066 35.8398 171.41ZM67.0352 180H60.9648L54.707 167.93H54.6016C54.75 169.828 54.8242 171.277 54.8242 172.277V180H50.7227V162.867H56.7695L63.0039 174.773H63.0742C62.9648 173.047 62.9102 171.66 62.9102 170.613V162.867H67.0352V180ZM87.0508 180H80.9805L74.7227 167.93H74.6172C74.7656 169.828 74.8398 171.277 74.8398 172.277V180H70.7383V162.867H76.7852L83.0195 174.773H83.0898C82.9805 173.047 82.9258 171.66 82.9258 170.613V162.867H87.0508V180ZM100.926 180H90.7539V162.867H100.926V166.582H95.3828V169.277H100.516V172.992H95.3828V176.227H100.926V180ZM111.555 166.418C110.453 166.418 109.594 166.871 108.977 167.777C108.359 168.676 108.051 169.918 108.051 171.504C108.051 174.801 109.305 176.449 111.812 176.449C112.57 176.449 113.305 176.344 114.016 176.133C114.727 175.922 115.441 175.668 116.16 175.371V179.285C114.73 179.918 113.113 180.234 111.309 180.234C108.723 180.234 106.738 179.484 105.355 177.984C103.98 176.484 103.293 174.316 103.293 171.48C103.293 169.707 103.625 168.148 104.289 166.805C104.961 165.461 105.922 164.43 107.172 163.711C108.43 162.984 109.906 162.621 111.602 162.621C113.453 162.621 115.223 163.023 116.91 163.828L115.492 167.473C114.859 167.176 114.227 166.926 113.594 166.723C112.961 166.52 112.281 166.418 111.555 166.418ZM127.07 180H122.441V166.652H118.258V162.867H131.242V166.652H127.07V180Z" fill="#30354C"/>
<path d="M16.415 207V197.006H17.1123V206.344H21.877V207H16.415ZM26.4365 207.137C25.3564 207.137 24.5133 206.804 23.9072 206.139C23.3057 205.473 23.0049 204.541 23.0049 203.343C23.0049 202.158 23.2965 201.21 23.8799 200.499C24.4632 199.784 25.2493 199.426 26.2383 199.426C27.1133 199.426 27.8037 199.731 28.3096 200.342C28.8154 200.952 29.0684 201.782 29.0684 202.83V203.377H23.7158C23.7249 204.398 23.9619 205.177 24.4268 205.715C24.8962 206.253 25.5661 206.521 26.4365 206.521C26.8604 206.521 27.2318 206.492 27.5508 206.433C27.8743 206.373 28.2822 206.246 28.7744 206.05V206.665C28.3551 206.847 27.9678 206.97 27.6123 207.034C27.2568 207.103 26.8649 207.137 26.4365 207.137ZM26.2383 200.027C25.5228 200.027 24.9486 200.264 24.5156 200.738C24.0827 201.208 23.8298 201.887 23.7568 202.775H28.3506C28.3506 201.914 28.1637 201.242 27.79 200.759C27.4163 200.271 26.8991 200.027 26.2383 200.027ZM35.6309 207L35.46 205.824H35.4053C35.0316 206.303 34.6465 206.642 34.25 206.843C33.8581 207.039 33.3932 207.137 32.8555 207.137C32.1263 207.137 31.5589 206.95 31.1533 206.576C30.7477 206.202 30.5449 205.685 30.5449 205.024C30.5449 204.3 30.8457 203.737 31.4473 203.336C32.0534 202.935 32.9284 202.723 34.0723 202.7L35.4873 202.659V202.167C35.4873 201.461 35.3438 200.927 35.0566 200.567C34.7695 200.207 34.307 200.027 33.6689 200.027C32.9808 200.027 32.2676 200.219 31.5293 200.602L31.2764 200.014C32.0921 199.631 32.8988 199.439 33.6963 199.439C34.512 199.439 35.1204 199.651 35.5215 200.075C35.9271 200.499 36.1299 201.16 36.1299 202.058V207H35.6309ZM32.8965 206.521C33.6895 206.521 34.3138 206.296 34.7695 205.845C35.2298 205.389 35.46 204.758 35.46 203.951V203.22L34.1611 203.274C33.1175 203.325 32.3724 203.489 31.9258 203.767C31.4837 204.04 31.2627 204.468 31.2627 205.052C31.2627 205.517 31.404 205.879 31.6865 206.139C31.9736 206.394 32.377 206.521 32.8965 206.521ZM41.4688 199.426C41.7832 199.426 42.1204 199.458 42.4805 199.521L42.3506 200.171C42.0407 200.093 41.7194 200.055 41.3867 200.055C40.7533 200.055 40.2337 200.324 39.8281 200.861C39.4225 201.399 39.2197 202.078 39.2197 202.898V207H38.543V199.569H39.1172L39.1855 200.909H39.2334C39.5387 200.362 39.8646 199.979 40.2109 199.761C40.5573 199.537 40.9766 199.426 41.4688 199.426ZM49.1797 207V202.181C49.1797 201.433 49.0225 200.891 48.708 200.554C48.3936 200.212 47.9059 200.041 47.2451 200.041C46.3564 200.041 45.7048 200.267 45.29 200.718C44.8799 201.164 44.6748 201.891 44.6748 202.898V207H43.998V199.569H44.5723L44.7021 200.588H44.7432C45.2262 199.813 46.0853 199.426 47.3203 199.426C49.0065 199.426 49.8496 200.33 49.8496 202.14V207H49.1797ZM52.1191 206.467C52.1191 206.02 52.3014 205.797 52.666 205.797C53.0397 205.797 53.2266 206.02 53.2266 206.467C53.2266 206.913 53.0397 207.137 52.666 207.137C52.3014 207.137 52.1191 206.913 52.1191 206.467ZM63.3301 201.962H67.0146V206.521C66.0485 206.932 64.9616 207.137 63.7539 207.137C62.1771 207.137 60.9671 206.692 60.124 205.804C59.2855 204.91 58.8662 203.648 58.8662 202.017C58.8662 201 59.0736 200.1 59.4883 199.316C59.9076 198.528 60.5046 197.92 61.2793 197.491C62.0586 197.063 62.9518 196.849 63.959 196.849C65.0482 196.849 66.0257 197.049 66.8916 197.45L66.6113 198.079C65.7454 197.678 64.8477 197.478 63.918 197.478C62.6009 197.478 61.555 197.885 60.7803 198.701C60.0101 199.512 59.625 200.608 59.625 201.989C59.625 203.493 59.9919 204.626 60.7256 205.387C61.4593 206.143 62.5371 206.521 63.959 206.521C64.8796 206.521 65.6611 206.392 66.3037 206.132V202.618H63.3301V201.962ZM72.2852 199.426C72.5996 199.426 72.9368 199.458 73.2969 199.521L73.167 200.171C72.8571 200.093 72.5358 200.055 72.2031 200.055C71.5697 200.055 71.0501 200.324 70.6445 200.861C70.2389 201.399 70.0361 202.078 70.0361 202.898V207H69.3594V199.569H69.9336L70.002 200.909H70.0498C70.3551 200.362 70.681 199.979 71.0273 199.761C71.3737 199.537 71.793 199.426 72.2852 199.426ZM80.96 203.274C80.96 204.487 80.666 205.435 80.0781 206.118C79.4902 206.797 78.679 207.137 77.6445 207.137C76.9928 207.137 76.4186 206.979 75.9219 206.665C75.4251 206.351 75.0446 205.899 74.7803 205.312C74.516 204.724 74.3838 204.045 74.3838 203.274C74.3838 202.062 74.6777 201.119 75.2656 200.444C75.8535 199.765 76.6602 199.426 77.6855 199.426C78.7064 199.426 79.5062 199.77 80.085 200.458C80.6683 201.142 80.96 202.08 80.96 203.274ZM75.0947 203.274C75.0947 204.295 75.318 205.093 75.7646 205.667C76.2158 206.237 76.8516 206.521 77.6719 206.521C78.4922 206.521 79.1257 206.237 79.5723 205.667C80.0234 205.093 80.249 204.295 80.249 203.274C80.249 202.249 80.0212 201.454 79.5654 200.889C79.1143 200.324 78.4785 200.041 77.6582 200.041C76.8379 200.041 76.2044 200.324 75.7578 200.889C75.3158 201.449 75.0947 202.244 75.0947 203.274ZM88.958 207L87.3311 202.03C87.2262 201.693 87.0918 201.199 86.9277 200.547H86.8867L86.7432 201.053L86.4355 202.044L84.7812 207H84.1113L81.9854 199.569H82.71L83.8994 203.876C84.1774 204.942 84.3597 205.726 84.4463 206.228H84.4873C84.7562 205.161 84.9521 204.452 85.0752 204.102L86.6064 199.569H87.2217L88.6777 204.088C89.0059 205.159 89.2064 205.868 89.2793 206.214H89.3203C89.3568 205.918 89.5391 205.125 89.8672 203.835L91.002 199.569H91.6855L89.6689 207H88.958ZM93.0117 206.467C93.0117 206.02 93.194 205.797 93.5586 205.797C93.9323 205.797 94.1191 206.02 94.1191 206.467C94.1191 206.913 93.9323 207.137 93.5586 207.137C93.194 207.137 93.0117 206.913 93.0117 206.467ZM107.531 207H106.827V202.085H100.989V207H100.292V197.006H100.989V201.442H106.827V197.006H107.531V207ZM113.198 207.137C112.118 207.137 111.275 206.804 110.669 206.139C110.067 205.473 109.767 204.541 109.767 203.343C109.767 202.158 110.058 201.21 110.642 200.499C111.225 199.784 112.011 199.426 113 199.426C113.875 199.426 114.565 199.731 115.071 200.342C115.577 200.952 115.83 201.782 115.83 202.83V203.377H110.478C110.487 204.398 110.724 205.177 111.188 205.715C111.658 206.253 112.328 206.521 113.198 206.521C113.622 206.521 113.993 206.492 114.312 206.433C114.636 206.373 115.044 206.246 115.536 206.05V206.665C115.117 206.847 114.729 206.97 114.374 207.034C114.019 207.103 113.627 207.137 113.198 207.137ZM113 200.027C112.285 200.027 111.71 200.264 111.277 200.738C110.844 201.208 110.591 201.887 110.519 202.775H115.112C115.112 201.914 114.925 201.242 114.552 200.759C114.178 200.271 113.661 200.027 113 200.027ZM118.558 207H117.881V196.363H118.558V207ZM124.231 207.137C123.088 207.137 122.254 206.708 121.729 205.852H121.682L121.702 206.426C121.72 206.763 121.729 207.132 121.729 207.533V210.363H121.053V199.569H121.627L121.757 200.629H121.798C122.308 199.827 123.124 199.426 124.245 199.426C125.248 199.426 126.011 199.756 126.535 200.417C127.064 201.073 127.328 202.03 127.328 203.288C127.328 204.509 127.05 205.457 126.494 206.132C125.943 206.802 125.188 207.137 124.231 207.137ZM124.218 206.535C124.979 206.535 125.567 206.253 125.981 205.688C126.401 205.122 126.61 204.332 126.61 203.315C126.61 201.132 125.822 200.041 124.245 200.041C123.379 200.041 122.743 200.28 122.338 200.759C121.932 201.233 121.729 202.007 121.729 203.083V203.302C121.729 204.464 121.923 205.293 122.311 205.79C122.702 206.287 123.338 206.535 124.218 206.535ZM129.256 206.467C129.256 206.02 129.438 205.797 129.803 205.797C130.176 205.797 130.363 206.02 130.363 206.467C130.363 206.913 130.176 207.137 129.803 207.137C129.438 207.137 129.256 206.913 129.256 206.467Z" fill="black"/>
</svg>
