<svg width="73" height="73" viewBox="0 0 73 73" fill="none" xmlns="http://www.w3.org/2000/svg">
<path fill-rule="evenodd" clip-rule="evenodd" d="M34.1065 71.573C34.4993 71.7941 34.8511 71.8995 35.181 71.9818C35.6375 72.0961 36.0495 72.1392 36.4439 72.1404C37.293 72.1429 38.0852 71.9734 39.2491 71.3089L67.2056 56.142C69.3009 54.9457 70.2146 53.6949 70.2146 51.3023V20.4456C70.2146 18.0531 68.7462 16.9836 66.6394 15.7874L38.5492 0.568736C38.2917 0.423879 38.0887 0.312374 37.879 0.237978C37.4111 0.0719035 37.0258 0.00839996 36.5381 0.00839996C35.8314 0.00839996 35.1326 0.0121062 33.8652 0.735728L6.43757 15.4532C4.34218 16.6494 2.28125 18.0531 2.28125 20.4456L2.33757 51.4364C2.33757 53.8288 4.08898 55.3837 6.19562 56.58L34.1065 71.573Z" fill="#32C3FF"/>
<path fill-rule="evenodd" clip-rule="evenodd" d="M38.4117 44.3835C38.4117 48.3719 39.293 50.1045 42.8832 50.1045C43.7971 50.1045 44.6131 50.0064 45.3312 49.8757L45.2333 49.1238C44.6131 49.2219 43.993 49.2871 43.3727 49.2871C39.8477 49.2871 39.3908 47.6852 39.3908 44.3835C39.3908 41.0817 39.7825 39.4798 43.3727 39.4798C43.993 39.4798 44.6457 39.5779 45.2333 39.6431L45.3312 38.8586C44.6457 38.7279 43.7971 38.6298 42.8832 38.6298C39.293 38.6624 38.4117 40.395 38.4117 44.3835ZM32.0142 39.3162L27.9344 50.0064H28.9135L30.1538 46.6719H35.2129L36.4533 50.0064H37.465L33.4178 39.3162C33.2545 38.8912 33.0261 38.6624 32.6997 38.6624C32.4059 38.6624 32.2101 38.8586 32.0142 39.3162ZM32.6997 39.9374L34.9191 45.8873H30.4476L32.6997 39.9374ZM53.5889 38.7931L48.3992 43.9912V38.7931H47.4528V50.0064H48.3992V44.4814L53.687 50.0064H54.9273L49.3457 44.22L54.7639 38.7931H53.5889ZM24.9316 38.7931V43.8605H18.6321V38.7931H17.6855V50.0064H18.6321V44.6776H24.9642V50.0064H25.9107V38.7931H24.9316Z" fill="white"/>
<path fill-rule="evenodd" clip-rule="evenodd" d="M45.2843 24.4634V34.8112H47.4839V25.9321L51.3164 33.3425C51.9497 34.5443 52.5161 34.9449 53.3828 34.9449C54.3158 34.9449 54.8492 34.3773 54.8492 33.1089V22.7611H52.6496V31.6067L48.8169 24.2298C48.2171 23.0616 47.5838 22.661 46.7507 22.661C45.8508 22.6276 45.2843 23.1951 45.2843 24.4634ZM33.3532 28.8028C33.3532 33.1758 34.4197 34.9449 38.1855 34.9449C41.9184 34.9449 42.9846 33.1422 42.9846 28.8028C42.9846 24.4301 41.9184 22.661 38.1855 22.661C34.4197 22.6276 33.3532 24.4301 33.3532 28.8028ZM35.8527 28.8028C35.8527 26.3327 35.9194 24.6637 38.1855 24.6637C40.452 24.6637 40.5186 26.3327 40.5186 28.8028C40.5186 31.273 40.452 32.9419 38.1855 32.9419C35.886 32.9086 35.8527 31.2397 35.8527 28.8028ZM22.6553 22.9615V34.8112H25.0882V30.2049C25.5214 30.2382 26.0545 30.2715 26.5546 30.2715L29.0206 34.8112H31.8202L29.0542 29.9713C30.487 29.5372 31.3537 28.5359 31.3537 26.3995C31.3537 23.1282 29.1874 22.6276 26.5213 22.6276C25.1215 22.6276 23.6884 22.7611 22.6553 22.9615ZM25.0882 28.2688V24.6304C25.588 24.5636 26.1547 24.5303 26.6212 24.5303C28.3876 24.5303 28.9873 25.0643 28.9873 26.3995C28.9873 27.9351 28.0876 28.3356 26.5879 28.3356C26.1214 28.3356 25.6546 28.3356 25.1548 28.2688C25.1548 28.2688 25.1548 28.2688 25.1215 28.2688C25.1215 28.2688 25.1215 28.2688 25.0882 28.2688C25.1215 28.2688 25.1215 28.2688 25.0882 28.2688C25.1215 28.2688 25.1215 28.2688 25.0882 28.2688ZM17.5896 34.8112H20.0558V22.7611H17.5896V34.8112ZM38.1855 34.9449C38.1855 34.9449 34.4197 34.9449 38.1855 34.9449V34.9449Z" fill="white"/>
</svg>
