<svg width="49" height="47" viewBox="0 0 49 47" fill="none" xmlns="http://www.w3.org/2000/svg">
<rect x="0.5" y="0.5" width="48" height="46" stroke="#C4C4C4"/>
<path d="M22.6523 14.8672V25.1797C22.6523 27.4219 22.0156 29.1602 20.7422 30.3945C19.4766 31.6211 17.6484 32.2344 15.2578 32.2344C12.9219 32.2344 11.125 31.6367 9.86719 30.4414C8.61719 29.2461 7.99219 27.5273 7.99219 25.2852V14.8672H12.6445V24.9219C12.6445 26.1328 12.8711 27.0117 13.3242 27.5586C13.7773 28.1055 14.4453 28.3789 15.3281 28.3789C16.2734 28.3789 16.957 28.1094 17.3789 27.5703C17.8086 27.0234 18.0234 26.1328 18.0234 24.8984V14.8672H22.6523ZM41.6836 32H36.3281L32.9883 26.6445L29.6836 32H24.4453L30.1289 23.2344L24.7852 14.8672H29.918L33.0117 20.1641L35.9883 14.8672H41.2734L35.8477 23.5977L41.6836 32Z" fill="#C4C4C4"/>
</svg>
