<svg width="49" height="47" viewBox="0 0 49 47" fill="none" xmlns="http://www.w3.org/2000/svg">
<rect x="0.5" y="0.5" width="48" height="46" stroke="#C4C4C4"/>
<path d="M23.5742 32H18.1016L16.4609 24.5352C16.3828 24.2227 16.2578 23.6016 16.0859 22.6719C15.9219 21.7422 15.8008 20.9648 15.7227 20.3398C15.6602 20.8477 15.5586 21.4805 15.418 22.2383C15.2773 22.9883 15.1367 23.6797 14.9961 24.3125C14.8633 24.9453 14.2969 27.5078 13.2969 32H7.82422L3.58203 14.8672H8.04688L9.91016 23.457C10.332 25.3555 10.6211 26.8672 10.7773 27.9922C10.8789 27.1953 11.0586 26.1133 11.3164 24.7461C11.582 23.3789 11.8281 22.2461 12.0547 21.3477L13.5664 14.8672H17.8555L19.3203 21.3477C19.5703 22.3867 19.8242 23.5859 20.082 24.9453C20.3398 26.3047 20.5117 27.3203 20.5977 27.9922C20.6992 27.125 20.9766 25.6211 21.4297 23.4805L23.3281 14.8672H27.793L23.5742 32ZM44.5508 23.0703C44.5508 25.9297 43.7617 28.1328 42.1836 29.6797C40.6133 31.2266 38.4023 32 35.5508 32H30.0078V14.8672H35.9375C38.6875 14.8672 40.8086 15.5703 42.3008 16.9766C43.8008 18.3828 44.5508 20.4141 44.5508 23.0703ZM39.7461 23.2344C39.7461 21.6641 39.4336 20.5 38.8086 19.7422C38.1914 18.9844 37.25 18.6055 35.9844 18.6055H34.6367V28.2031H35.668C37.0742 28.2031 38.1055 27.7969 38.7617 26.9844C39.418 26.1641 39.7461 24.9141 39.7461 23.2344Z" fill="#C4C4C4"/>
</svg>
