<svg width="106" height="112" viewBox="0 0 106 112" fill="none" xmlns="http://www.w3.org/2000/svg">
<path fill-rule="evenodd" clip-rule="evenodd" d="M49.795 110.791C50.4031 111.134 50.9476 111.297 51.4582 111.424C52.1648 111.601 52.8026 111.668 53.4131 111.67C54.7275 111.674 55.9539 111.411 57.7555 110.383L101.031 86.905C104.274 85.0533 105.688 83.1171 105.688 79.4135V31.649C105.688 27.9456 103.415 26.29 100.154 24.4383L56.6721 0.880736C56.2734 0.656505 55.9592 0.483901 55.6346 0.36874C54.9104 0.111667 54.314 0.0133667 53.559 0.0133667C52.465 0.0133667 51.3834 0.0191037 49.4214 1.13923L6.96501 23.921C3.72145 25.7727 0.53125 27.9456 0.53125 31.649L0.618437 79.6211C0.618437 83.3244 3.32952 85.7313 6.59049 87.583L49.795 110.791Z" fill="#32C3FF"/>
<path fill-rule="evenodd" clip-rule="evenodd" d="M56.4592 68.7033C56.4592 74.877 57.8233 77.5589 63.3808 77.5589C64.7954 77.5589 66.0585 77.4071 67.1702 77.2048L67.0187 76.0409C66.0585 76.1927 65.0987 76.2937 64.1386 76.2937C58.6821 76.2937 57.9748 73.8141 57.9748 68.7033C57.9748 63.5921 58.5811 61.1125 64.1386 61.1125C65.0987 61.1125 66.109 61.2643 67.0187 61.3653L67.1702 60.1509C66.109 59.9486 64.7954 59.7968 63.3808 59.7968C57.8233 59.8472 56.4592 62.5292 56.4592 68.7033ZM46.5561 60.8593L40.2409 77.4071H41.7565L43.6764 72.2455H51.5077L53.4276 77.4071H54.9937L48.7289 60.8593C48.4761 60.2014 48.1226 59.8473 47.6173 59.8473C47.1625 59.8473 46.8595 60.1509 46.5561 60.8593ZM47.6173 61.8209L51.0528 71.0311H44.1312L47.6173 61.8209ZM79.9526 60.0496L71.9193 68.0959V60.0496H70.4542V77.4071H71.9193V68.8548L80.1044 77.4071H82.0244L73.3845 68.4501L81.7715 60.0496H79.9526ZM35.5927 60.0496V67.8936H25.8414V60.0496H24.3762V77.4071H25.8414V69.1585H35.6432V77.4071H37.1083V60.0496H35.5927Z" fill="white"/>
<path fill-rule="evenodd" clip-rule="evenodd" d="M67.0977 37.8681V53.8858H70.5026V40.1415L76.4351 51.6124C77.4153 53.4727 78.2921 54.0928 79.6337 54.0928C81.0779 54.0928 81.9036 53.2142 81.9036 51.2508V35.233H78.4987V48.9255L72.5659 37.5065C71.6375 35.6981 70.6572 35.078 69.3676 35.078C67.9745 35.0263 67.0977 35.9047 67.0977 37.8681ZM48.6289 44.5852C48.6289 51.3543 50.2798 54.0928 56.1092 54.0928C61.8874 54.0928 63.5379 51.3024 63.5379 44.5852C63.5379 37.8165 61.8874 35.078 56.1092 35.078C50.2798 35.0263 48.6289 37.8165 48.6289 44.5852ZM52.4981 44.5852C52.4981 40.7616 52.6012 38.1781 56.1092 38.1781C59.6175 38.1781 59.7206 40.7616 59.7206 44.5852C59.7206 48.4089 59.6175 50.9923 56.1092 50.9923C52.5497 50.9408 52.4981 48.3573 52.4981 44.5852ZM32.0692 35.5431V53.8858H35.8352V46.7555C36.5058 46.8071 37.3311 46.8586 38.1051 46.8586L41.9224 53.8858H46.2559L41.9743 46.3939C44.1923 45.7219 45.5338 44.1721 45.5338 40.8651C45.5338 35.8012 42.1805 35.0263 38.0535 35.0263C35.8868 35.0263 33.6684 35.233 32.0692 35.5431ZM35.8352 43.7586V38.1266C36.6089 38.0231 37.4861 37.9715 38.2082 37.9715C40.9425 37.9715 41.8708 38.7982 41.8708 40.8651C41.8708 43.2419 40.4781 43.862 38.1567 43.862C37.4345 43.862 36.712 43.862 35.9383 43.7586C35.9383 43.7586 35.9383 43.7586 35.8868 43.7586C35.8868 43.7586 35.8868 43.7586 35.8352 43.7586C35.8868 43.7586 35.8868 43.7586 35.8352 43.7586C35.8868 43.7586 35.8868 43.7586 35.8352 43.7586ZM24.2278 53.8858H28.0453V35.233H24.2278V53.8858ZM56.1092 54.0928C56.1092 54.0928 50.2798 54.0928 56.1092 54.0928V54.0928Z" fill="white"/>
</svg>
